<?xml version="1.0" encoding="utf-8"?>
<!-- Generator: Adobe Illustrator 23.0.1, SVG Export Plug-In . SVG Version: 6.00 Build 0)  -->
<svg version="1.1" xmlns="http://www.w3.org/2000/svg" xmlns:xlink="http://www.w3.org/1999/xlink" x="0px" y="0px"
	 viewBox="0 0 579.9 319.4" style="enable-background:new 0 0 579.9 319.4;" xml:space="preserve">
<style type="text/css">
	.st0{fill:#CCF4FF;}
	.st1{fill:#AFE1F6;}
	.st2{fill:#9AE19D;}
	.st3{fill:#63C663;}
	.st4{fill:#E8E9ED;}
	.st5{fill:#3BB7E2;}
	.st6{fill:#17A4E5;}
	.st7{fill:#BDBDF2;}
	.st8{fill:#FFB8B8;}
	.st9{fill:none;stroke:#E252A0;stroke-width:0.1753;stroke-linecap:round;stroke-linejoin:round;stroke-miterlimit:10;}
	.st10{fill:none;stroke:#E252A0;stroke-width:0.173;stroke-linecap:round;stroke-linejoin:round;stroke-miterlimit:10;}
	.st11{fill:none;stroke:#FFFFFF;stroke-width:0.5;stroke-miterlimit:10;}
	.st12{fill:#39393F;}
	.st13{fill:#9EB3BE;}
	.st14{fill:none;stroke:#FF6EBE;stroke-width:0.375;stroke-linecap:round;stroke-linejoin:round;stroke-miterlimit:10;}
	.st15{fill:none;stroke:#17A4E5;stroke-width:0.375;stroke-linecap:round;stroke-linejoin:round;stroke-miterlimit:10;}
	.st16{fill:#2D2D2D;}
	.st17{fill:#6262C4;}
	.st18{fill:#27272B;}
	.st19{fill:#7F7F7F;}
	.st20{fill:#E3F1FC;}
	.st21{fill:#F75C03;}
	.st22{fill:none;stroke:#362451;stroke-width:0.3136;stroke-linecap:round;stroke-linejoin:round;stroke-miterlimit:10;}
</style>
<g id="BACKGROUND">
</g>
<g id="OBJECTS">
	<g>
		<polygon class="st0" points="579.9,143.7 579.9,206.8 0,206.8 0,66 48.9,66 48.9,131.6 88.3,131.6 105.9,102.7 105.9,70.3 
			119.8,70.3 119.8,82.3 130.7,82.3 130.7,108.8 169.2,108.8 222.3,155.4 375.2,155.4 375.2,98 405.7,71.2 428.6,71.2 428.6,105.5 
			449.2,105.5 449.2,124.2 482.2,124.2 482.2,151.2 501.1,151.2 501.1,178.9 541.2,178.9 541.2,108.8 549.9,101.2 549.9,79.7 
			573.4,79.7 573.4,143.7 		"/>
		<polygon class="st1" points="579.9,167.1 579.9,218.9 0,218.9 0,103.4 48.9,103.4 48.9,157.2 88.3,157.2 105.9,133.5 105.9,106.9 
			119.8,106.9 119.8,116.8 130.7,116.8 130.7,138.5 169.2,138.5 222.3,176.8 375.2,176.8 375.2,129.7 405.7,107.7 428.6,107.7 
			428.6,135.8 449.2,135.8 449.2,151.2 482.2,151.2 482.2,173.3 501.1,173.3 501.1,196 541.2,196 541.2,138.5 549.9,132.2 
			549.9,114.7 573.4,114.7 573.4,167.1 		"/>
	</g>
	<g>
		<path class="st2" d="M116.1,205.8H0v-37.2c10.5,1.4,21.2,8,23,14.8c0.3-10.6,21.3,1.4,21.4,1.4v0c-0.3-0.3-5.6-10.1,1.3-14.1
			c4.1-2.3,7.2,2.9,9.1,7.7c-0.1-2.7,1-5.4,5.7-6.2c8.5-1.4,12.9,10.8,14,14.1c-0.7-2.3-2.1-8.3,4.8-9.9c7.9-1.8,9.2,10.7,9.2,10.7
			c0-0.1,0-12.5,10.1-12.7c10.1-0.1,9.1,16.7,9.1,16.7l4.3,7.7L116.1,205.8z"/>
		<polygon class="st3" points="112.1,198.8 116.1,205.8 0,205.8 0,198.8 		"/>
		<path class="st2" d="M497,187C497,187,497,187,497,187c0-0.1,0-0.1,0.1-0.2C497,186.9,497,187,497,187z M548.2,183.3
			c-0.3-8.7-18.8-0.4-21,1.2c0.9-1.6,4.8-10.2-1.5-13.9c-4-2.3-7.1,2.9-9,7.7c0.1-2.7-1-5.4-5.6-6.2c-8.5-1.4-12.8,11-13.8,14.2
			c0.7-2.3,2.1-8.4-4.8-10c-7.8-1.8-9.1,10.7-9.1,10.7c0-0.1,0-12.5-9.9-12.7c-10-0.1-9,16.7-9,16.7l-4.3,7.7l-3.9,7h123.6v-36.9
			C567.7,166.1,550.6,174.5,548.2,183.3z"/>
		<polygon class="st3" points="579.9,198.8 579.9,205.8 456.2,205.8 460.1,198.8 		"/>
	</g>
	<g>
		<g>
			<g>
				<g>
					<g>
						<g>
							<rect x="178.8" y="27.7" class="st4" width="1.7" height="151.6"/>
							<rect x="164.6" y="27.7" class="st4" width="1.7" height="151.6"/>
						</g>
						<g>
							
								<rect x="162.7" y="170.1" transform="matrix(0.7071 -0.7071 0.7071 0.7071 -70.1456 172.1275)" class="st4" width="20.1" height="1.3"/>
							
								<rect x="162.7" y="170.1" transform="matrix(0.7071 0.7071 -0.7071 0.7071 171.313 -72.112)" class="st4" width="20.1" height="1.3"/>
						</g>
						<g>
							
								<rect x="162.7" y="156.6" transform="matrix(0.7071 -0.7071 0.7071 0.7071 -60.6047 168.1755)" class="st4" width="20.1" height="1.3"/>
							
								<rect x="162.7" y="156.6" transform="matrix(0.7071 0.7071 -0.7071 0.7071 161.7721 -76.064)" class="st4" width="20.1" height="1.3"/>
						</g>
						<g>
							
								<rect x="162.7" y="143.1" transform="matrix(0.7071 -0.7071 0.7071 0.7071 -51.0638 164.2235)" class="st4" width="20.1" height="1.3"/>
							
								<rect x="162.7" y="143.1" transform="matrix(0.7071 0.7071 -0.7071 0.7071 152.2312 -80.016)" class="st4" width="20.1" height="1.3"/>
						</g>
						<g>
							
								<rect x="162.7" y="129.6" transform="matrix(0.7071 -0.7071 0.7071 0.7071 -41.5228 160.2723)" class="st4" width="20.1" height="1.3"/>
							
								<rect x="162.7" y="129.6" transform="matrix(0.7071 0.7071 -0.7071 0.7071 142.691 -83.9681)" class="st4" width="20.1" height="1.3"/>
						</g>
						<g>
							
								<rect x="162.7" y="116.1" transform="matrix(0.7071 -0.7071 0.7071 0.7071 -31.9819 156.3203)" class="st4" width="20.1" height="1.3"/>
							
								<rect x="162.7" y="116.1" transform="matrix(0.7071 0.7071 -0.7071 0.7071 133.1501 -87.9201)" class="st4" width="20.1" height="1.3"/>
						</g>
						<g>
							
								<rect x="162.7" y="102.6" transform="matrix(0.7071 -0.7071 0.7071 0.7071 -22.4411 152.3676)" class="st4" width="20.1" height="1.3"/>
							
								<rect x="162.7" y="102.6" transform="matrix(0.7071 0.7071 -0.7071 0.7071 123.6085 -91.8719)" class="st4" width="20.1" height="1.3"/>
						</g>
						<g>
							
								<rect x="162.7" y="89.1" transform="matrix(0.7071 -0.7071 0.7071 0.7071 -12.9002 148.4156)" class="st4" width="20.1" height="1.3"/>
							
								<rect x="162.7" y="89.1" transform="matrix(0.7071 0.7071 -0.7071 0.7071 114.0676 -95.8239)" class="st4" width="20.1" height="1.3"/>
						</g>
						<g>
							
								<rect x="162.7" y="75.6" transform="matrix(0.7071 -0.7071 0.7071 0.7071 -3.3593 144.4636)" class="st4" width="20.1" height="1.3"/>
							
								<rect x="162.7" y="75.6" transform="matrix(0.7071 0.7071 -0.7071 0.7071 104.5266 -99.7759)" class="st4" width="20.1" height="1.3"/>
						</g>
						<g>
							
								<rect x="162.7" y="62.1" transform="matrix(0.7071 -0.7071 0.7071 0.7071 6.1819 140.5123)" class="st4" width="20.1" height="1.3"/>
							
								<rect x="162.7" y="62.1" transform="matrix(0.7071 0.7071 -0.7071 0.7071 94.9863 -103.7281)" class="st4" width="20.1" height="1.3"/>
						</g>
						<g>
							
								<rect x="162.7" y="48.6" transform="matrix(0.7071 -0.7071 0.7071 0.7071 15.7228 136.5603)" class="st4" width="20.1" height="1.3"/>
							
								<rect x="162.7" y="48.6" transform="matrix(0.7071 0.7071 -0.7071 0.7071 85.4454 -107.6801)" class="st4" width="20.1" height="1.3"/>
						</g>
						<g>
							
								<rect x="162.7" y="35.1" transform="matrix(0.7071 -0.7071 0.7071 0.7071 25.2634 132.6077)" class="st4" width="20.1" height="1.3"/>
							
								<rect x="162.7" y="35.1" transform="matrix(0.7071 0.7071 -0.7071 0.7071 75.9039 -111.6318)" class="st4" width="20.1" height="1.3"/>
						</g>
					</g>
					<g>
						<g>
							<rect x="413.6" y="27.7" class="st4" width="1.7" height="151.6"/>
							<rect x="399.4" y="27.7" class="st4" width="1.7" height="151.6"/>
						</g>
						<g>
							
								<rect x="397.5" y="170.1" transform="matrix(0.7071 -0.7071 0.7071 0.7071 -1.3733 338.1584)" class="st4" width="20.1" height="1.3"/>
							
								<rect x="397.5" y="170.1" transform="matrix(0.7071 0.7071 -0.7071 0.7071 240.0852 -238.143)" class="st4" width="20.1" height="1.3"/>
						</g>
						<g>
							
								<rect x="397.5" y="156.6" transform="matrix(0.7071 -0.7071 0.7071 0.7071 8.1676 334.2065)" class="st4" width="20.1" height="1.3"/>
							
								<rect x="397.5" y="156.6" transform="matrix(0.7071 0.7071 -0.7071 0.7071 230.5443 -242.095)" class="st4" width="20.1" height="1.3"/>
						</g>
						<g>
							
								<rect x="397.5" y="143.1" transform="matrix(0.7071 -0.7071 0.7071 0.7071 17.7085 330.2545)" class="st4" width="20.1" height="1.3"/>
							
								<rect x="397.5" y="143.1" transform="matrix(0.7071 0.7071 -0.7071 0.7071 221.0034 -246.047)" class="st4" width="20.1" height="1.3"/>
						</g>
						<g>
							
								<rect x="397.5" y="129.6" transform="matrix(0.7071 -0.7071 0.7071 0.7071 27.2501 326.3039)" class="st4" width="20.1" height="1.3"/>
							
								<rect x="397.5" y="129.6" transform="matrix(0.7071 0.7071 -0.7071 0.7071 211.4639 -249.9996)" class="st4" width="20.1" height="1.3"/>
						</g>
						<g>
							
								<rect x="397.5" y="116.1" transform="matrix(0.7071 -0.7071 0.7071 0.7071 36.791 322.3519)" class="st4" width="20.1" height="1.3"/>
							
								<rect x="397.5" y="116.1" transform="matrix(0.7071 0.7071 -0.7071 0.7071 201.9229 -253.9517)" class="st4" width="20.1" height="1.3"/>
						</g>
						<g>
							
								<rect x="397.5" y="102.6" transform="matrix(0.7071 -0.7071 0.7071 0.7071 46.3312 318.3986)" class="st4" width="20.1" height="1.3"/>
							
								<rect x="397.5" y="102.6" transform="matrix(0.7071 0.7071 -0.7071 0.7071 192.3807 -257.9029)" class="st4" width="20.1" height="1.3"/>
						</g>
						<g>
							
								<rect x="397.5" y="89.1" transform="matrix(0.7071 -0.7071 0.7071 0.7071 55.8721 314.4466)" class="st4" width="20.1" height="1.3"/>
							
								<rect x="397.5" y="89.1" transform="matrix(0.7071 0.7071 -0.7071 0.7071 182.8398 -261.8549)" class="st4" width="20.1" height="1.3"/>
						</g>
						<g>
							
								<rect x="397.5" y="75.6" transform="matrix(0.7071 -0.7071 0.7071 0.7071 65.413 310.4946)" class="st4" width="20.1" height="1.3"/>
							
								<rect x="397.5" y="75.6" transform="matrix(0.7071 0.7071 -0.7071 0.7071 173.2989 -265.8069)" class="st4" width="20.1" height="1.3"/>
						</g>
						<g>
							
								<rect x="397.5" y="62.1" transform="matrix(0.7071 -0.7071 0.7071 0.7071 74.9548 306.5439)" class="st4" width="20.1" height="1.3"/>
							
								<rect x="397.5" y="62.1" transform="matrix(0.7071 0.7071 -0.7071 0.7071 163.7592 -269.7597)" class="st4" width="20.1" height="1.3"/>
						</g>
						<g>
							
								<rect x="397.5" y="48.6" transform="matrix(0.7071 -0.7071 0.7071 0.7071 84.4957 302.5918)" class="st4" width="20.1" height="1.3"/>
							
								<rect x="397.5" y="48.6" transform="matrix(0.7071 0.7071 -0.7071 0.7071 154.2182 -273.7117)" class="st4" width="20.1" height="1.3"/>
						</g>
						<g>
							
								<rect x="397.5" y="35.1" transform="matrix(0.7071 -0.7071 0.7071 0.7071 94.0357 298.6387)" class="st4" width="20.1" height="1.3"/>
							
								<rect x="397.5" y="35.1" transform="matrix(0.7071 0.7071 -0.7071 0.7071 144.6762 -277.6628)" class="st4" width="20.1" height="1.3"/>
						</g>
					</g>
				</g>
				<path class="st4" d="M420.2,25.3H159.7c-0.7,0-1.2,0.5-1.2,1.2l0,0c0,0.7,0.5,1.2,1.2,1.2h260.4c0.7,0,1.2-0.5,1.2-1.2l0,0
					C421.3,25.8,420.8,25.3,420.2,25.3z"/>
			</g>
			<rect x="190.3" y="21.4" class="st5" width="199.4" height="18.5"/>
			<rect x="190.3" y="159.3" class="st6" width="199.4" height="18.5"/>
			<path class="st6" d="M431.7,25H148.3c-2,0-3.5-1.6-3.5-3.5V3.5c0-2,1.6-3.5,3.5-3.5h283.5c2,0,3.5,1.6,3.5,3.5v17.9
				C435.3,23.4,433.7,25,431.7,25z"/>
		</g>
		<g>
			<rect x="111.1" y="176.3" class="st7" width="357.8" height="29.5"/>
			<rect x="111.1" y="192.7" class="st7" width="357.8" height="13.1"/>
		</g>
		<g>
			<g>
				<g>
					<g>
						<g>
							<path class="st8" d="M273.6,98.9c-0.1,1.5,0.7,3.9,0.7,3.9s1.4-0.3,1.6-0.5c0.1-0.2,1.5-2.4,1.6-2.7s0.2-1.1,0.2-1.1l-3-0.2"
								/>
							<path class="st8" d="M277.2,98.7c0.4-1.2-0.1-1.9-0.8-2c-0.7-0.1-1,0.3-1,0.3s-0.6-0.1-0.8,0.1c-0.3,0.2-0.4,0.6-0.4,0.6
								s-0.8,0.4-0.9,0.9s0.9,1.3,1.1,1.7c0.2,0.4,2-0.3,2.4-0.8S277.2,98.7,277.2,98.7z"/>
							<path class="st8" d="M278.2,121l-2-2.2c0,0-1.6-2.6-1.7-4.3c-0.1-1.8-0.2-11.6-0.2-11.6s0.8-0.5,0.9-1
								c0.1-0.5,1.9-2.5,1.9-2.5s-1.2-0.1-1.1-0.8c0-0.7,1.4-1,1.8-0.8c0.5,0.2,0.3,1.6,0.2,1.9c-0.1,0.4-0.9,2.6-0.9,2.6l2.8,12.5
								c0.5,1.7,3.3,4.1,3.3,4.1l-4.9,2.6"/>
							<path class="st9" d="M275,98.5"/>
							<path class="st9" d="M275.3,100.3"/>
						</g>
						<g>
							<path class="st8" d="M309.2,113.6c-0.2,1.4-1.6,3.6-1.6,3.6s-1.3-0.6-1.4-0.8c-0.1-0.2-0.9-2.7-0.9-2.9
								c0-0.3,0.1-1.1,0.1-1.1l2.9,0.5"/>
							<path class="st8" d="M305.7,112.7c-0.1-1.3,0.5-1.8,1.2-1.7s0.9,0.5,0.9,0.5s0.6,0,0.8,0.3c0.2,0.3,0.2,0.6,0.2,0.6
								s0.7,0.6,0.6,1c0,0.5-1.1,1-1.4,1.4c-0.3,0.4-1.9-0.8-2.1-1.2C305.6,113,305.7,112.7,305.7,112.7z"/>
							<path class="st8" d="M299.6,127.4l5.5-11.4c0,0-0.3-2.3-0.3-2.7c0-0.4,0.1-1.8,0.6-1.8c0.5-0.1,1.7,0.5,1.6,1.2
								c-0.1,0.7-1.3,0.6-1.3,0.6s1.3,2.3,1.3,2.8c0,0.5,0.7,1.2,0.7,1.2s-2.4,9.4-2.8,11.1c-0.5,2.7-2.9,4.8-6.3,2.6"/>
							<path class="st10" d="M305.6,113.1"/>
							<path class="st10" d="M306.7,112"/>
						</g>
						<path class="st6" d="M287.2,119.6c0,0-3.7-1.1-6-4c-1.7,0.4-5.5,4.6-5.2,4.9c0.3,0.3,3.7,4.1,4.1,5.4
							c0.4,1.3,0.1,14.9,0.1,14.9l16.1-0.4l-0.8-10c0,0,3.5,2,3.6,2c0.1,0,1.4-6.8,1-6.9c-0.4-0.1-6-3.6-7.2-4.2
							c-1.2-0.5-3.1-0.9-3.1-0.9L287.2,119.6z"/>
						<path class="st11" d="M285.5,121.6c-0.2-3.4,6-4.5,6.8,0.5"/>
						<g>
							<path class="st12" d="M287,117.9c-1-0.4-2-2.5-2-4.4c0.1-1.9,1.3-1.8,1.3-1.8s-0.5-1.4,2-2.1c2.5-0.7,5-0.4,5.6,1.3
								c0.6,1.6-2.1,2-2.1,2L287,117.9z"/>
							<g>
								<g>
									<path class="st8" d="M287.1,113.3l0.1,2.4c0,0-0.6-1.7-1.4-1.1c-0.8,0.6,0.2,2.3,0.9,2.3c0,0,0.2,2.3,0.2,3
										c-0.1,0.6,2.1,3,3.1,2.9c1-0.1,0.9-0.9,0.9-1.4c0-0.5,0.1-1.7,0.1-1.7s1.6,0.3,2.1-1.3S293,112,293,112
										S289.9,113,287.1,113.3z"/>
								</g>
							</g>
						</g>
					</g>
					<path class="st4" d="M285.5,124.2L285.5,124.2c-0.5,0-0.8-0.4-0.8-0.8v-1.4c0-0.5,0.4-0.8,0.8-0.8l0,0c0.5,0,0.8,0.4,0.8,0.8
						v1.4C286.3,123.8,285.9,124.2,285.5,124.2z"/>
					<path class="st4" d="M292.2,124.6L292.2,124.6c-0.5,0-0.8-0.4-0.8-0.8v-1.4c0-0.5,0.4-0.8,0.8-0.8l0,0c0.5,0,0.8,0.4,0.8,0.8
						v1.4C293.1,124.2,292.7,124.6,292.2,124.6z"/>
				</g>
				<rect x="241.2" y="140" class="st13" width="95" height="36.4"/>
				<g>
					<rect x="250" y="137.4" class="st12" width="20.1" height="2.6"/>
					<polygon class="st12" points="244.4,129.1 263.5,129.1 266.5,140 247.5,140 					"/>
				</g>
				<rect x="275" y="136.4" class="st12" width="29.3" height="3.6"/>
				<polygon class="st12" points="309.2,140 309.2,137.4 324.5,137.4 327,134.9 334.1,134.9 334.1,140 				"/>
				<path class="st14" d="M311.6,137.4c0-3.5-4.4-3.3-5.2,3.4c-0.8,6.7-4.7,23.6-12.8,23.4c-8.1-0.2-6.3-14.6-5.5-19.8
					c0.8-5.2-1.2-6.2-1.2-6.2"/>
				<path class="st15" d="M313.5,137.4c-2.6,6.6,4.8,13.1,8.1,20.1c3.3,7-0.4,10.5-0.4,10.5"/>
				<path class="st15" d="M278.5,136.4c-1.8-2.3-3.8,1.6-2.5,9.1c1.3,7.5-2.6,12.5-6.2,10.1c-3.7-2.4,0.7-16-2.8-17.1"/>
			</g>
			<g>
				<path class="st12" d="M274.6,162.3h-26.4c-1.1,0-2,0.9-2,2v10.1c0,1.1,0.9,2,2,2h26.4c1.1,0,2-0.9,2-2v-10.1
					C276.6,163.2,275.7,162.3,274.6,162.3z"/>
				<path class="st16" d="M270.3,172.9h-17.7c-1,0-1.8-0.8-1.8-1.8v-4.2c0-1,0.8-1.8,1.8-1.8h17.7c1,0,1.8,0.8,1.8,1.8v4.2
					C272.1,172,271.3,172.9,270.3,172.9z"/>
			</g>
			<g>
				<path class="st12" d="M329.2,162.3h-26.4c-1.1,0-2,0.9-2,2v10.1c0,1.1,0.9,2,2,2h26.4c1.1,0,2-0.9,2-2v-10.1
					C331.2,163.2,330.3,162.3,329.2,162.3z"/>
				<path class="st16" d="M324.9,172.9h-17.7c-1,0-1.8-0.8-1.8-1.8v-4.2c0-1,0.8-1.8,1.8-1.8h17.7c1,0,1.8,0.8,1.8,1.8v4.2
					C326.7,172,325.9,172.9,324.9,172.9z"/>
			</g>
		</g>
		<g>
			<path class="st12" d="M351.8,166l4,10.3h24l0,0l5.8,0c0.2-7.7-4-10.3-4-10.3H351.8z"/>
			<path class="st16" d="M355.8,176.3c0.2-7.7-4-10.3-4-10.3l-4.3,10.3L355.8,176.3z"/>
		</g>
		<g>
			<path class="st12" d="M223.8,166l-4,10.3h-24l0,0l-5.8,0c-0.2-7.7,4-10.3,4-10.3H223.8z"/>
			<path class="st16" d="M219.7,176.3c-0.2-7.7,4-10.3,4-10.3l4.3,10.3L219.7,176.3z"/>
		</g>
		<g>
			<g>
				<g>
					<rect x="486" y="154.8" class="st17" width="2.1" height="49.3"/>
					<path class="st12" d="M492.7,202.2h-11.4c-1,0-1.9,0.8-1.9,1.9l0,0c0,1,0.8,1.9,1.9,1.9h11.4c1,0,1.9-0.8,1.9-1.9l0,0
						C494.6,203,493.8,202.2,492.7,202.2z"/>
				</g>
				<g>
					<path class="st18" d="M511.8,157.7h-39.5c-4,0-7.3-3.3-7.3-7.3V90.5c0-4,3.3-7.3,7.3-7.3h39.5c4,0,7.3,3.3,7.3,7.3v59.9
						C519.1,154.5,515.8,157.7,511.8,157.7z"/>
					<path class="st12" d="M500.4,157.7h-39.5c-4,0-7.3-3.3-7.3-7.3V90.5c0-4,3.3-7.3,7.3-7.3h39.5c4,0,7.3,3.3,7.3,7.3v59.9
						C507.7,154.5,504.5,157.7,500.4,157.7z"/>
					<g>
						<g>
							<circle class="st16" cx="480.7" cy="105.9" r="12.6"/>
							<path class="st19" d="M487,105.9c0,3.5-2.8,6.3-6.3,6.3c-3.5,0-6.3-2.8-6.3-6.3c0-3.5,2.8-6.3,6.3-6.3
								C484.2,99.6,487,102.4,487,105.9z"/>
						</g>
						<g>
							<circle class="st16" cx="480.7" cy="135.1" r="12.6"/>
							<path class="st19" d="M487,135.1c0,3.5-2.8,6.3-6.3,6.3c-3.5,0-6.3-2.8-6.3-6.3s2.8-6.3,6.3-6.3
								C484.2,128.8,487,131.6,487,135.1z"/>
						</g>
					</g>
				</g>
			</g>
			<g>
				<g>
					
						<rect x="91.8" y="154.8" transform="matrix(-1 -1.224647e-16 1.224647e-16 -1 185.7035 358.8583)" class="st17" width="2.1" height="49.3"/>
					<path class="st12" d="M87.1,202.2h11.4c1,0,1.9,0.8,1.9,1.9l0,0c0,1-0.8,1.9-1.9,1.9H87.1c-1,0-1.9-0.8-1.9-1.9l0,0
						C85.2,203,86.1,202.2,87.1,202.2z"/>
				</g>
				<g>
					<path class="st18" d="M68.1,157.7h39.5c4,0,7.3-3.3,7.3-7.3V90.5c0-4-3.3-7.3-7.3-7.3H68.1c-4,0-7.3,3.3-7.3,7.3v59.9
						C60.8,154.5,64.1,157.7,68.1,157.7z"/>
					<path class="st12" d="M79.4,157.7H119c4,0,7.3-3.3,7.3-7.3V90.5c0-4-3.3-7.3-7.3-7.3H79.4c-4,0-7.3,3.3-7.3,7.3v59.9
						C72.1,154.5,75.4,157.7,79.4,157.7z"/>
					<g>
						<g>
							<circle class="st16" cx="99.2" cy="105.9" r="12.6"/>
							<path class="st19" d="M92.9,105.9c0,3.5,2.8,6.3,6.3,6.3c3.5,0,6.3-2.8,6.3-6.3c0-3.5-2.8-6.3-6.3-6.3
								C95.7,99.6,92.9,102.4,92.9,105.9z"/>
						</g>
						<g>
							<circle class="st16" cx="99.2" cy="135.1" r="12.6"/>
							<path class="st19" d="M92.9,135.1c0,3.5,2.8,6.3,6.3,6.3c3.5,0,6.3-2.8,6.3-6.3s-2.8-6.3-6.3-6.3
								C95.7,128.8,92.9,131.6,92.9,135.1z"/>
						</g>
					</g>
				</g>
			</g>
		</g>
	</g>
	<g>
		<rect y="205.8" class="st13" width="579.9" height="13.2"/>
	</g>
	<g>
		<g>
			<g>
				<polygon class="st8" points="317.4,266.9 313.3,295.3 313.9,296.1 311.6,298 310.2,296.7 304.9,296.7 304.9,295.4 305.7,268.6 
					305.9,263.2 317.8,263.8 				"/>
				<polygon class="st8" points="317.8,263.8 317.4,266.9 305.7,268.6 305.9,263.2 				"/>
				<polygon class="st12" points="317.7,301.5 317.7,304 304.9,304 304.9,296.7 310.2,296.7 311.6,298 313.9,296.1 				"/>
				<polygon class="st8" points="299.3,267.6 295.3,295.3 295.9,296.1 293.7,298 292.3,296.7 287,296.7 287,295.4 287.8,268.5 
					287.9,263.2 299.7,264.9 				"/>
				<polygon class="st8" points="287.9,263.2 299.7,264.9 299.3,267.6 287.8,268.5 				"/>
				<path class="st6" d="M317.3,264.8c-0.2,0-0.4,0.1-0.6,0.1c-4.2,0.7-12.6,1-12.6,0.7c-0.1-0.5-2.4-16.8-2.4-16.8l-0.9,8.2l-1,8.6
					l-14-0.8c0,0,0.1-14,3.2-35.5l3.7-2.9l17.5,1.1l0.6,0l2.1,0.1c0,0,5.5,34.8,6.1,36.3C319.1,264.3,318.4,264.6,317.3,264.8z"/>
				<path class="st20" d="M291.6,198.7c3.2-0.1,9.5-0.7,9.5-0.7l6.1-0.1c0,0,2.7,9.9,3,15.2c0.3,5.2,2.9,13,2.8,14.7
					c-0.1,1.7-7.2,3.3-14.8,3s-9.5,0.4-9.2-2.4c0.3-2.8,0.6-10.8-0.4-14.8c-1-4-1.9-7.8-1.9-7.8l0.5-5.8"/>
				<g>
					<path class="st8" d="M292.7,199.2c0.8-2.1,0.4-4.4,0.4-4.4l2.1-6.3l6.3-4h0.9l0.5,0.8c0,0,1.5,6.1,1.1,8.6
						c-0.4,2.5-3.2,1.9-3.2,1.9s-0.1,1.6,0.3,2.3C299,199.6,293,202.8,292.7,199.2z"/>
					<path class="st12" d="M303.5,184.4c-0.4,1.3-3.5,2.4-3.5,2.4v3.3c0,0-0.6-1.1-1.8-1c-1.2,0.2-0.9,3.8,1.1,4
						c0,0-1.4,2.6-5.4,2.4c-3.9-0.2-7.2-7.5-6.8-8.8c0.4-1.3,1.6-1.6,1.6-1.6s-1.5-4,3.7-6C297.7,177.2,304.4,178.4,303.5,184.4z"/>
				</g>
				<g>
					<path class="st8" d="M306.6,197.9c1.6-1,8.3,7,8.3,7s-0.4-11.1-0.7-11.5c-0.3-0.4-2.6-1.4-2.6-2.6c0-1.2,0.5-2.3,0.5-2.3
						s-1.3-1.5-0.9-2.3c0.4-0.8,4-2.6,5.9-1.3c1.8,1.3,2.2,2.5,2.3,3.8c0.1,1.3,0.1,4.5,0.7,6.4c0.6,1.9,3.1,15.8,2.8,18.1
						c-0.2,2.3-0.7,4.7-3.5,4.6c-2.7-0.1-8.7-2.7-10.5-5.1C307.3,210.3,303.8,201.7,306.6,197.9z"/>
				</g>
				<path class="st8" d="M291.6,198.7c-3.5-6-7-14.3-7-14.3s-0.2-18.7,0-19.5c0.2-0.8,3.6-3.7,3.8-4.8c0.2-1.1-1.2-0.6-2.1-0.2
					c-1,0.4-1.5,1.1-1.5,1.1s0.6-2.6,1.4-3.7c0.8-1.1,1.9-2.2,1.7-3.2c-0.2-1-5.4,0.6-6.9,3c-1.5,2.4-1.7,8.2-1.7,8.2
					s-2.4,19.7-1.9,24.3c0.6,4.6,10.3,19.8,10.3,19.8s0.9-1.3,1.2-3.8C289,203.1,290.6,199.2,291.6,198.7z"/>
				<polygon class="st6" points="301.7,248.9 300.8,257.1 296.8,247.6 				"/>
				<polygon class="st12" points="299.7,301.5 299.7,304 287,304 287,296.7 292.3,296.7 293.7,298 295.9,296.1 				"/>
			</g>
			<g>
				<g>
					<polygon class="st8" points="210.2,309.4 210.6,309.9 208.1,309.9 206.2,311.8 203,311.8 203,278.6 214.7,277.8 					"/>
					<polygon class="st12" points="217.5,317 217.5,319.4 203,319.4 203,311.8 206.2,311.8 208.1,309.9 210.6,309.9 					"/>
				</g>
				<g>
					<polygon class="st8" points="227.7,309.4 228.1,309.9 225.6,309.9 223.7,311.8 220.4,311.8 220.4,278.6 232.1,277.8 					"/>
					<polygon class="st12" points="234.9,317 234.9,319.4 220.4,319.4 220.4,311.8 223.7,311.8 225.6,309.9 228.1,309.9 					"/>
				</g>
				<polygon class="st12" points="233,280.6 219.5,280.6 217.8,270.9 216.5,262.8 214.9,280.6 201.9,280.6 202.8,241.7 225.9,239 
									"/>
				<polygon class="st12" points="220.9,253 217.8,270.9 216.5,262.8 216.6,253.8 				"/>
				<g>
					<path class="st8" d="M241.2,226c-0.1,3.1-2.2,5-4.9,4.5c-1.7-0.3-6.4-3.4-9.6-5.8l1.3-11.1c2.1,1.7,4,3.3,4,3.3
						s0.5-10.7,0-11.1c-0.4-0.4-3.9-2.2-3.9-3c0-0.8,2.6-0.7,2.6-0.7s-1.2-2.7-2.2-2.9c-1-0.2-2.4-1.4-1.9-2.2
						c0.4-0.8,5.5-0.5,6.9,1.2c1.3,1.8,3.2,8.2,3.2,8.2S241.3,222.9,241.2,226z"/>
					<path class="st6" d="M226.7,224.7c-1.9-1.4-3.4-2.5-3.4-2.5s0.5,7.5,1,10.7c0.4,3.1,1.6,6.1,1.6,6.1l-23,2.7l-1.5-5.4l3.9-15.9
						l4.8-11.6l6,0c0,0,5-0.3,6.4,0.5c0.7,0.4,3.3,2.4,5.6,4.3L226.7,224.7z"/>
					<g>
						<path class="st12" d="M210.5,205.9c-2.8,0.1-3.5-1-2.8-3.5c0.7-2.5-2.5-2.9-1.7-6.2c0.8-3.2,3.2-3.9,6.3-3.5
							c3.1,0.4,5.4-2,7.2-1.1c1.7,0.9,0.7,2.2,0.7,2.2s1.4-0.5,2,1.2c0.6,1.7-3.5,2.9-3.5,2.9S210.5,205.9,210.5,205.9z"/>
						<g>
							<path class="st8" d="M210.4,198.5l0.1,3.7c0,0-1-2.7-2.2-1.7c-1.3,1,0.2,3.6,1.5,3.6c0,0,0.4,3.7,0.3,4.7
								c-0.1,1,3.3,4.7,4.8,4.5c1.6-0.2,1.4-1.5,1.4-2.2c0-0.7,0.1-2.7,0.1-2.7s2.5,0.5,3.4-2.1c0.9-2.6,0-11.1,0-11.1
								S214.9,198,210.4,198.5z"/>
						</g>
					</g>
					<path class="st6" d="M210.1,208.8l-4.2,13.4l-1.9,6.8c-4.2,0.2-7.3-1.7-8.9-2.9c1.9-6,5-13.9,6.6-14.7
						C203.9,210.2,210.1,208.8,210.1,208.8z"/>
					<path class="st8" d="M219.5,251.5c-0.4,4-3.7,4.3-3.7,3.4c0-1-0.6-3.7-1.3-5.1c-0.7-1.4-8.5-5.2-12-7.3
						c-3.5-2.1-9.6-6.4-9.1-10.1c0.2-1.1,0.8-3.5,1.7-6.2c1.6,1.2,4.7,3.1,8.9,2.9l-0.8,3c0,0,13.2,12.4,14.1,13
						C218.1,245.6,219.8,247.5,219.5,251.5z"/>
				</g>
			</g>
			<g>
				<g>
					<polygon class="st8" points="377.9,286.2 377.5,286.6 380,286.6 381.9,288.5 385.2,288.5 385.2,234 372.1,232 					"/>
					<polygon class="st12" points="370.7,293.8 370.7,296.1 385.2,296.1 385.2,288.5 381.9,288.5 380,286.6 377.5,286.6 					"/>
				</g>
				<path class="st8" d="M367.8,247.7c-0.3,0.7,0,7.6,0,7.6l0,33.2h-3.3l-1.9-1.9h-2.5l0.4-0.4l-4.5-31.6l2-20.5h11.5
					C369.5,234,368.1,247,367.8,247.7z"/>
				<g>
					<polygon class="st12" points="353.2,293.8 353.2,296.1 367.8,296.1 367.8,288.5 364.5,288.5 362.6,286.6 360.1,286.6 					"/>
				</g>
				<g>
					<path class="st8" d="M346.9,202.7c0.1,3.1,2.2,5,4.9,4.5c1.7-0.3,6.4-3.4,9.6-5.8l-1.3-11.1c-2.1,1.7-4,3.3-4,3.3
						s-0.5-10.7,0-11.1c0.4-0.4,3.9-2.2,3.9-3c0-0.8-2.6-0.7-2.6-0.7s1.2-2.7,2.2-2.9c1-0.2,2.4-1.4,1.9-2.2
						c-0.4-0.8-5.5-0.5-6.9,1.2c-1.3,1.8-3.2,8.2-3.2,8.2S346.9,199.6,346.9,202.7z"/>
					<path class="st21" d="M367.4,171c-3,0.5-1.8,6.4-1.1,8c0.6,1.6-5.5,5.7-1.3,10.2c4.2,4.6,18.3,7,21.1,1.5s2.6-8.1,0.6-11.7
						c-2-3.6-0.6-10.9-6.5-12.6C374.1,164.7,367.5,166.5,367.4,171z"/>
					<path class="st12" d="M361.5,201.5c1.9-1.4,3.4-2.5,3.4-2.5s-0.5,7.5-1,10.7c-0.4,3.1-1.6,6.1-1.6,6.1l23,2.7l1.5-5.4
						l-3.9-15.9l-4.8-11.6l-6,0c0,0-5-0.3-6.4,0.5c-0.7,0.4-3.3,2.4-5.6,4.3L361.5,201.5z"/>
					<path class="st12" d="M362.5,215.1c-0.1,0.2-0.1,0.4-0.2,0.7c-2.6,8.4-6,27-6,27l29.3,0.8l-0.2-25.1"/>
					<g>
						<g>
							<path class="st8" d="M377.7,175.2l-0.1,3.7c0,0,1-2.7,2.2-1.7c1.3,1-0.2,3.6-1.5,3.6c0,0-0.4,3.7-0.3,4.7
								c0.1,1-3.3,4.7-4.8,4.5c-1.6-0.2-1.4-1.5-1.4-2.2c0-0.7-0.1-2.7-0.1-2.7s-2.5,0.5-3.4-2.1c-0.9-2.6,0-11.1,0-11.1
								S373.3,174.7,377.7,175.2z"/>
							<path class="st22" d="M368.4,175.9"/>
							<path class="st22" d="M370.4,176.1"/>
						</g>
					</g>
					<path class="st12" d="M378.1,185.6l4.2,13.4l1.9,6.8c4.2,0.2,7.3-1.7,8.9-2.9c-1.9-6-5-13.9-6.6-14.7
						C384.3,187,378.1,185.6,378.1,185.6z"/>
					<path class="st8" d="M368.7,228.2c0.4,4,3.7,4.3,3.7,3.4c0-1,0.6-3.7,1.3-5.1c0.7-1.4,8.5-5.2,12-7.3c3.5-2.1,9.6-6.4,9.1-10.1
						c-0.2-1.1-0.8-3.5-1.7-6.2c-1.6,1.2-4.7,3.1-8.9,2.9l0.8,3c0,0-13.2,12.4-14.1,13C370.1,222.4,368.3,224.2,368.7,228.2z"/>
				</g>
			</g>
			<g>
				<path class="st8" d="M131.2,197.1c-1.4,0.7-2.7,0.9-3.5,0.3c-2.2-1.9-8.5-18.3-9.1-19c-0.6-0.7-3.4-4.2-2.4-6.5
					c1-2.3,2.3-3.1,3.8-2.9c1.5,0.3,1.2,1.4,1.2,1.4s2.2,0.7,2.3,1.9c0.1,1.3-0.5,3.7-0.5,3.7l6.1,10.7
					C128.8,190.5,130.2,194.7,131.2,197.1z"/>
				<g>
					<polygon class="st8" points="163.1,250.6 159.7,278.9 160.3,279.8 158.1,281.7 156.7,280.3 151.4,280.3 151.4,279.1 
						152.2,252.2 152.3,246.9 163.5,247.5 					"/>
					<polygon class="st8" points="163.5,247.5 163.1,250.6 152.2,252.2 152.3,246.9 					"/>
					<polygon class="st12" points="164.1,285.2 164.1,287.6 151.4,287.6 151.4,280.3 156.7,280.3 158.1,281.7 160.3,279.8 					"/>
					<polygon class="st8" points="145.8,251.3 141.8,278.9 142.4,279.8 140.1,281.7 138.7,280.3 133.4,280.3 133.4,279.1 
						134.2,252.2 134.4,246.9 146.2,248.6 					"/>
					<polygon class="st8" points="134.4,246.9 146.2,248.6 145.8,251.3 134.2,252.2 					"/>
					<path class="st6" d="M163.7,248.5c-0.2,0-0.4,0.1-0.6,0.1c-4.2,0.7-12.6,1-12.6,0.7c-0.1-0.5-2.4-16.8-2.4-16.8l-0.9,8.2
						l-1,8.6l-12.8-0.7c0,0-1-14,2-35.6l3.7-2.9l17.5,1.1l0.6,0l2.1,0.1c0,0,3.8,35.3,4.4,36.8C163.9,248.4,163.7,248.5,163.7,248.5
						z"/>
					<polyline class="st6" points="146.3,249.3 142.9,277.4 132.3,277.4 133.4,248.6 138.6,246.5 					"/>
					<polyline class="st6" points="150.5,249.3 149.6,278.6 161.4,277.8 163.8,248.1 153.2,246.1 					"/>
					<path class="st20" d="M138.1,182.3c3.2-0.1,9.5-0.7,9.5-0.7l6.1-0.1c0,0,2.7,9.9,3,15.2c0.3,5.2,2.9,13,2.8,14.7
						c-0.1,1.7-7.2,3.3-14.8,3c-7.6-0.3-9.5,0.4-9.2-2.4c0.3-2.8,0.6-10.8-0.4-14.8c-1-4-1.9-7.8-1.9-7.8l0.5-5.8L138.1,182.3z"/>
					<g>
						<path class="st8" d="M139.2,182.9c0.8-2.1,0.4-4.4,0.4-4.4l2.1-6.3l6.3-4h0.9l0.5,0.8c0,0,1.5,6.1,1.1,8.6
							c-0.4,2.5-3.2,1.9-3.2,1.9s-0.1,1.6,0.3,2.3C145.5,183.2,139.4,186.5,139.2,182.9z"/>
						<path class="st12" d="M150,168.1c-0.4,1.3-3.5,2.4-3.5,2.4v3.3c0,0-0.6-1.1-1.8-1c-1.2,0.2-0.9,3.8,1.1,4c0,0-1.4,2.6-5.4,2.4
							c-3.9-0.2-7.2-7.5-6.8-8.8c0.4-1.3,1.6-1.6,1.6-1.6s-1.5-4,3.7-6C144.2,160.8,150.9,162.1,150,168.1z"/>
						<path class="st12" d="M137.3,163.7c3.3-3.7,9.1-5.5,10.8-3.7c1.7,1.7-0.4,3.7-0.4,3.7s3.1-1.3,4.3,1.4
							c1.2,2.6-3.5,4.5-3.5,4.5"/>
					</g>
					<g>
						<path class="st8" d="M169.4,196.9c-0.2,2.3-0.7,4.7-3.5,4.6c-1.6,0-4.4-1-6.8-2.2c2.1-2.5,2.5-8.2,1.2-11.9
							c0.6,0.7,1,1.2,1,1.2s-0.4-11.1-0.7-11.5c-0.3-0.4-2.6-1.4-2.6-2.6c0-1.2,0.5-2.3,0.5-2.3s-1.3-1.5-0.9-2.3
							c0.4-0.8,4-2.6,5.9-1.3c1.8,1.3,2.2,2.5,2.3,3.8c0.1,1.3,0.1,4.5,0.7,6.4C167.1,180.6,169.6,194.5,169.4,196.9z"/>
					</g>
					<polygon class="st6" points="148.1,232.5 147.2,240.7 143.2,231.2 					"/>
					<polygon class="st12" points="146.2,285.2 146.2,287.6 133.4,287.6 133.4,280.3 138.7,280.3 140.1,281.7 142.4,279.8 					"/>
				</g>
				<path class="st20" d="M136.9,193.3c0,0-3,2.6-5.6,3.8c-1-2.4-2.4-6.6-2.2-10.4l0.2,0.4l4.3-3.6l2.2,2.7L136.9,193.3z"/>
				<path class="st20" d="M159.2,199.2c-1.6-0.9-3-1.9-3.7-2.8c-1.8-2.4-5.2-11-2.4-14.8c1.2-0.8,5.4,3.6,7.3,5.8
					C161.7,190.9,161.3,196.7,159.2,199.2z"/>
			</g>
			<g>
				<g>
					<path class="st8" d="M448.6,196.3c1.4,0.7,2.7,0.9,3.5,0.3c2.2-1.9,8.5-18.3,9.1-19c0.6-0.7,3.4-4.2,2.4-6.5
						c-1-2.3-2.3-3.1-3.8-2.9c-1.5,0.3-1.2,1.4-1.2,1.4s-2.2,0.7-2.3,1.9c-0.1,1.3,0.5,3.7,0.5,3.7l-6.1,10.7
						C451,189.7,449.6,193.9,448.6,196.3z"/>
					<g>
						<polygon class="st8" points="416.8,249.8 420.2,278.1 419.6,279 421.8,280.9 423.2,279.5 428.5,279.5 428.5,278.3 
							427.7,251.4 427.5,246.1 416.4,246.7 						"/>
						<polygon class="st8" points="416.4,246.7 416.8,249.8 427.7,251.4 427.5,246.1 						"/>
						<polygon class="st12" points="415.8,284.4 415.8,286.8 428.5,286.8 428.5,279.5 423.2,279.5 421.8,280.9 419.5,279 						"/>
						<polygon class="st8" points="434.1,250.5 438.1,278.1 437.5,279 439.7,280.9 441.1,279.5 446.5,279.5 446.5,278.3 
							445.7,251.4 445.5,246.1 433.7,247.8 						"/>
						<polygon class="st8" points="445.5,246.1 433.7,247.8 434.1,250.5 445.7,251.4 						"/>
						<path class="st6" d="M433.6,248.5l12.8-0.7c0,0,1-14-2-35.6l-3.7-2.9l-17.5,1.1l-0.6,0l-2.1,0.1c0,0-3.8,35.3-4.4,36.8
							c-0.1,0.3,0,0.4,0,0.4c0.2,0,0.4,0.1,0.6,0.1c4.2,0.7,12.6,1,12.6,0.7H433.6z"/>
						<path class="st6" d="M441.8,181.5c-3.2-0.1-9.5-0.7-9.5-0.7l-6.1-0.1c0,0-2.7,9.9-3,15.2c-0.3,5.2-2.9,13-2.8,14.7
							c0.1,1.7,7.2,3.3,14.8,3c7.6-0.3,9.5,0.4,9.2-2.4c-0.3-2.8-0.6-10.8,0.4-14.8c1-4,1.9-7.8,1.9-7.8l-0.5-5.8L441.8,181.5z"/>
						<g>
							<path class="st8" d="M440.7,182.1c-0.8-2.1-0.4-4.4-0.4-4.4l-2.1-6.3l-6.3-4H431l-0.5,0.8c0,0-1.5,6.1-1.1,8.6
								c0.4,2.5,3.2,1.9,3.2,1.9s0.1,1.6-0.3,2.3C434.4,182.5,440.4,185.7,440.7,182.1z"/>
							<path class="st12" d="M429.9,167.3c0.1,0.2,0.1,0.4,0.2,0.6c0.6,2,1.8,3.8,3.3,5.2l0,0c0,0,0.6-1.1,1.8-1
								c1.2,0.2,0.9,3.8-1.1,4c0,0,1.4,2.6,5.4,2.4c3.9-0.2,7.2-7.5,6.8-8.8c-0.4-1.3-1.6-1.6-1.6-1.6s1.5-4-3.7-6
								C435.7,160,429,161.3,429.9,167.3z"/>
						</g>
						<g>
							<path class="st8" d="M410.5,196.1c0.2,2.3,0.7,4.7,3.5,4.6c1.6,0,4.4-1,6.8-2.2c-2.1-2.5-2.5-8.2-1.2-11.9
								c-0.6,0.7-1,1.2-1,1.2s0.4-11.1,0.7-11.5c0.3-0.4,2.6-1.4,2.6-2.6c0-1.2-0.5-2.3-0.5-2.3s1.3-1.5,0.9-2.3
								c-0.4-0.8-4-2.6-5.9-1.3c-1.8,1.3-2.2,2.5-2.3,3.8s-0.1,4.5-0.7,6.4C412.7,179.8,410.2,193.8,410.5,196.1z"/>
						</g>
						<polygon class="st12" points="433.7,284.4 433.7,286.8 446.5,286.8 446.5,279.5 441.1,279.5 439.7,280.9 437.5,279 						"/>
					</g>
					<path class="st6" d="M443,192.5c0,0,3,2.6,5.6,3.8c1-2.4,2.4-6.6,2.2-10.4l-0.2,0.4l-4.3-3.6l-2.2,2.7L443,192.5z"/>
					<path class="st6" d="M420.7,198.4c1.6-0.9,3-1.9,3.7-2.8c1.8-2.4,5.2-11,2.4-14.8c-1.2-0.8-5.4,3.6-7.3,5.8
						C418.2,190.1,418.6,195.9,420.7,198.4z"/>
				</g>
				<path class="st12" d="M445.3,166.2c-3.4-1.8-5.7,2-3.6,5.8c2.1,3.8-3,12.5-0.1,14.9C444.6,189.4,452.9,170.3,445.3,166.2z"/>
			</g>
		</g>
	</g>
</g>
</svg>
